<svg width="17" height="10" viewBox="0 0 17 10" fill="none" xmlns="http://www.w3.org/2000/svg">
<path fill-rule="evenodd" clip-rule="evenodd" d="M0 4.99998C0 4.86055 0.0570714 4.73445 0.149128 4.64376L4.14645 0.646446C4.34171 0.451185 4.65829 0.451185 4.85355 0.646446C5.04882 0.841709 5.04882 1.15829 4.85355 1.35355L1.70713 4.49998L16.5 4.49998C16.7761 4.49998 17 4.72384 17 4.99998C17 5.27612 16.7761 5.49998 16.5 5.49998L1.70709 5.49998L4.85355 8.64642C5.04882 8.84169 5.04882 9.15827 4.85355 9.35353C4.65829 9.54879 4.34171 9.5488 4.14645 9.35353L0.146447 5.35355C0.134903 5.34201 0.123981 5.32996 0.113704 5.31745C0.0426588 5.23111 0 5.12053 0 4.99998Z" fill="#221B38"/>
</svg>
