<svg width="17" height="9" viewBox="0 0 17 9" fill="none" xmlns="http://www.w3.org/2000/svg">
<path fill-rule="evenodd" clip-rule="evenodd" d="M17 4.50049C17 4.63991 16.9429 4.766 16.8509 4.85668L12.8536 8.85402C12.6583 9.04928 12.3417 9.04928 12.1464 8.85402C11.9512 8.65876 11.9512 8.34218 12.1464 8.14691L15.2929 5.00049L0.5 5.00049C0.223858 5.00049 0 4.77663 0 4.50049C0 4.22435 0.223858 4.00049 0.5 4.00049H15.2929L12.1464 0.854043C11.9512 0.658781 11.9512 0.342198 12.1464 0.146936C12.3417 -0.0483268 12.6583 -0.0483277 12.8536 0.146934L16.8536 4.14691C16.8644 4.15773 16.8746 4.16898 16.8843 4.18064C16.9566 4.26733 17 4.37884 17 4.50049Z" fill="white"/>
</svg>
