<svg width="17" height="10" viewBox="0 0 17 10" fill="none" xmlns="http://www.w3.org/2000/svg">
<path fill-rule="evenodd" clip-rule="evenodd" d="M17 4.99998C17 4.86055 16.9429 4.73445 16.8509 4.64376L12.8535 0.646446C12.6583 0.451185 12.3417 0.451185 12.1465 0.646446C11.9512 0.841709 11.9512 1.15829 12.1465 1.35355L15.2929 4.49998H0.5C0.2239 4.49998 0 4.72384 0 4.99998C0 5.27612 0.2239 5.49998 0.5 5.49998H15.2929L12.1465 8.64642C11.9512 8.84169 11.9512 9.15827 12.1465 9.35353C12.3417 9.54879 12.6583 9.5488 12.8535 9.35353L16.8536 5.35355C16.8651 5.34201 16.876 5.32996 16.8863 5.31745C16.9573 5.23111 17 5.12053 17 4.99998Z" fill="#221B38"/>
</svg>
