<svg width="285" height="64" viewBox="0 0 285 64" fill="none" xmlns="http://www.w3.org/2000/svg">
<path d="M44.48 18.88C40.02 14.71 30.88 10.26 30.5 10.07L30.23 9.94L29.96 10.07C29.7 10.2 25.48 12.26 21.39 14.86H21.33V14.9C19.36 16.16 17.42 17.53 15.98 18.88C11.93 22.67 9.63999 27.74 9.54999 33.15C9.45999 38.63 11.69 44.06 15.66 48.04C17.68 50.06 20.05 51.59 22.62 52.62L22.68 52.73L22.79 52.68C25.13 53.59 27.64 54.08 30.23 54.08C35.73 54.08 40.91 51.94 44.8 48.05C48.78 44.07 51 38.65 50.91 33.16C50.82 27.73 48.54 22.67 44.48 18.88ZM49.67 33.16C49.69 34.39 49.58 35.62 49.36 36.83H41.84V32.08H49.6C49.62 32.44 49.66 32.8 49.67 33.16ZM24.85 39.08H29.6V40.31L27.34 44.83H24.85V39.08ZM16.99 47.56C16.95 47.52 16.9 47.48 16.86 47.44V37.09L17.85 39.08H21.23L16.99 47.56ZM16.86 24.09H22.73L19.85 29.84H16.86V24.09ZM15.62 29.84H11.16C11.57 27.81 12.3 25.87 13.36 24.09H15.62V29.84ZM26.93 30.46L29.61 25.1V35.84H26.24L27.93 32.46L26.93 30.46ZM25.54 30.46L26.54 32.46L24.86 35.82V24.09H28.73L25.54 30.46ZM20.93 30.46L23.61 25.1V35.84H20.24L21.93 32.46L20.93 30.46ZM19.85 31.08L20.54 32.46L18.24 37.07L16.86 34.32V31.09H19.85V31.08ZM15.62 46.14C14.6 44.97 13.71 43.69 13 42.33L15.62 37.09V46.14V46.14ZM18.62 37.84L18.24 37.08H23.61V37.84H18.62ZM24.85 37.08H29.6V37.84H24.85V37.08ZM30.78 40.73L30.85 40.6V24.09H47.09C47.43 24.66 47.74 25.25 48.01 25.85H42.21H40.6H32.23V27.09H35.61V35.84H32.23V37.08H35.61V44.83H32.23H28.74L30.78 40.73ZM40.33 44.83H36.84V37.08H40.59V43.07H41.21L40.33 44.83ZM40.6 35.84H36.85V27.09H40.6V35.84ZM32.23 46.07H39.72L37.84 49.82H26.24L28.12 46.07H32.23ZM42.6 43.07H43.59V47.44C42.13 48.84 40.48 49.98 38.71 50.85L42.6 43.07ZM44.84 43.07H47.03C46.4 44.15 45.67 45.18 44.84 46.13V43.07ZM41.84 41.83V38.08H49.07C48.74 39.37 48.28 40.63 47.69 41.83H41.84ZM41.84 30.84V27.09H42.22H48.51C48.96 28.3 49.28 29.56 49.47 30.84H41.84ZM46.29 22.85H30.85V20.09H39.22V18.85H30.85V16.1H38.7C40.54 17.28 42.32 18.56 43.64 19.79C44.64 20.73 45.52 21.76 46.29 22.85ZM30.23 11.32C31.07 11.74 33.78 13.11 36.7 14.86H23.76C26.68 13.11 29.38 11.74 30.23 11.32ZM16.82 19.78C18.14 18.55 19.92 17.27 21.76 16.09H29.61V18.85H21.24V20.09H29.61V22.85H14.17C14.93 21.76 15.81 20.73 16.82 19.78ZM10.95 31.08H15.62V34.31L12.33 40.89C11.29 38.44 10.75 35.81 10.79 33.15C10.8 32.46 10.86 31.77 10.95 31.08ZM17.94 48.43L19.23 45.84L21.74 50.85C20.4 50.19 19.12 49.39 17.94 48.43ZM30.23 52.82C27.9 52.82 25.64 52.39 23.51 51.6L19.93 44.44L22.62 39.07H23.61V46.06H26.72L24.22 51.06H38.25C35.77 52.2 33.05 52.82 30.23 52.82Z" fill="#F5A519"/>
<path d="M71.68 44.54C75.48 44.54 81.2 44.54 88.84 44.54C88.84 44.96 88.84 45.58 88.84 46.42C84.25 46.42 77.35 46.42 68.15 46.42C68.42 46 68.84 45.38 69.4 44.54C72.93 39.24 78.24 31.3 85.31 20.72C81.51 20.72 75.79 20.72 68.15 20.72C68.15 20.3 68.15 19.68 68.15 18.84C72.74 18.84 79.64 18.84 88.84 18.84C88.57 19.26 88.15 19.88 87.59 20.72C84.05 26.02 78.75 33.96 71.68 44.54Z" fill="#2C0305"/>
<path d="M117.1 18.84C117.1 19.67 117.1 20.3 117.1 20.72C108.75 20.72 102.5 20.72 98.32 20.72C98.32 28.7 98.32 28.47 98.32 32.45C102.08 32.45 111.8 32.45 113.69 32.45C113.69 33.31 113.69 33.95 113.69 34.36C109.93 34.36 100.21 34.36 98.32 34.36C98.32 36.13 98.32 43.66 98.32 44.54C106.66 44.54 112.94 44.54 117.13 44.54C117.13 45.37 117.13 46 117.13 46.42C106.77 46.42 99.87 46.42 96.44 46.42C96.44 32.63 96.44 23.43 96.44 18.84C105.62 18.84 112.51 18.84 117.1 18.84Z" fill="#2C0305"/>
<path d="M246.65 18.84C246.65 19.67 246.65 20.3 246.65 20.72C238.3 20.72 232.05 20.72 227.87 20.72C227.87 28.7 227.87 28.47 227.87 32.45C231.63 32.45 241.35 32.45 243.24 32.45C243.24 33.31 243.24 33.95 243.24 34.36C239.48 34.36 229.76 34.36 227.87 34.36C227.87 36.13 227.87 43.66 227.87 44.54C236.21 44.54 242.49 44.54 246.68 44.54C246.68 45.37 246.68 46 246.68 46.42C236.32 46.42 229.42 46.42 225.99 46.42C225.99 32.63 225.99 23.43 225.99 18.84C235.18 18.84 242.06 18.84 246.65 18.84Z" fill="#2C0305"/>
<path d="M143.56 41.12C143.56 37.41 143.56 29.99 143.56 18.84C143.88 18.84 144.5 18.84 145.44 18.84C145.44 24.98 145.44 34.17 145.44 46.42C141.27 41.49 135 34.09 126.63 24.22C126.63 29.15 126.63 36.55 126.63 46.42C126.21 46.42 125.59 46.42 124.75 46.42C124.75 40.28 124.75 31.09 124.75 18.84C128.91 23.8 135.18 31.23 143.56 41.12Z" fill="#2C0305"/>
<path d="M155.61 18.84C155.61 21 155.61 25.33 155.61 31.84C158.26 29.66 163.55 25.32 171.48 18.84C172.14 18.84 173.12 18.84 174.43 18.84C171.75 21.02 167.74 24.33 162.39 28.74C165.07 32.67 169.08 38.56 174.43 46.41C173.94 46.41 173.19 46.41 172.18 46.41C169.68 42.75 165.93 37.27 160.95 29.95C159.75 30.93 157.97 32.39 155.61 34.33C155.61 37.01 155.61 41.03 155.61 46.41C155.19 46.41 154.57 46.41 153.73 46.41C153.73 40.27 153.73 31.08 153.73 18.83C154.14 18.84 154.77 18.84 155.61 18.84Z" fill="#2C0305"/>
<path d="M183.56 18.84C183.56 23.43 183.56 32.62 183.56 46.42H182.64H181.68C181.68 40.28 181.68 31.09 181.68 18.84C182.1 18.84 182.72 18.84 183.56 18.84Z" fill="#2C0305"/>
<path d="M211.89 32.61C212.8 32.61 213.26 32.61 213.29 32.61C213.34 32.61 214.11 32.61 215.61 32.61C215.98 32.61 216.42 32.61 216.94 32.61C217.46 32.61 218.06 32.61 218.74 32.61C218.74 33.96 218.56 35.25 218.19 36.48C217.85 37.71 217.34 38.85 216.68 39.9C215.45 41.86 213.81 43.43 211.75 44.61C209.69 45.81 207.43 46.41 204.98 46.41C203.63 46.41 202.34 46.23 201.11 45.86C199.88 45.52 198.74 45.01 197.69 44.35C195.73 43.12 194.16 41.48 192.98 39.42C191.78 37.36 191.18 35.09 191.18 32.61C191.18 31.28 191.36 30.01 191.73 28.78C192.07 27.55 192.58 26.41 193.24 25.36C194.47 23.4 196.11 21.83 198.17 20.65C200.23 19.45 202.5 18.85 204.98 18.85C206.87 18.85 208.66 19.21 210.36 19.92C212.03 20.66 213.49 21.65 214.74 22.9L214.41 23.23L213.42 24.22C212.34 23.14 211.08 22.29 209.63 21.68C208.18 21.04 206.64 20.72 204.99 20.72C203.84 20.72 202.73 20.88 201.68 21.2C200.6 21.49 199.61 21.92 198.7 22.49C197.01 23.55 195.64 24.97 194.61 26.76C193.58 28.53 193.06 30.48 193.06 32.61C193.06 33.76 193.22 34.87 193.54 35.92C193.86 37 194.3 37.99 194.87 38.9C195.9 40.59 197.31 41.96 199.1 42.99C200.87 44.02 202.83 44.54 204.99 44.54C206.02 44.54 207.02 44.42 207.97 44.17C208.95 43.9 209.86 43.53 210.69 43.07C212.29 42.21 213.61 41.03 214.67 39.54C215.75 38.04 216.44 36.37 216.73 34.53C215.65 34.53 214.04 34.53 211.91 34.53C211.89 34.11 211.89 33.47 211.89 32.61Z" fill="#2C0305"/>
<path d="M273.11 41.12C273.11 37.41 273.11 29.99 273.11 18.84C273.43 18.84 274.05 18.84 274.99 18.84C274.99 24.98 274.99 34.17 274.99 46.42C270.82 41.49 264.55 34.09 256.18 24.22C256.18 29.15 256.18 36.55 256.18 46.42C255.76 46.42 255.14 46.42 254.3 46.42C254.3 40.28 254.3 31.09 254.3 18.84C258.47 23.8 264.74 31.23 273.11 41.12Z" fill="#2C0305"/>
</svg>
